<svg id="Layer_1" data-name="Layer 1" xmlns="http://www.w3.org/2000/svg" xmlns:xlink="http://www.w3.org/1999/xlink" viewBox="0 0 1920 1080"><defs><style>.cls-1{fill:none;}.cls-2{clip-path:url(#clip-path);}.cls-3{fill:url(#linear-gradient);}.cls-4{fill:url(#linear-gradient-2);}.cls-5{fill:url(#linear-gradient-3);}</style><clipPath id="clip-path"><rect class="cls-1" width="1920" height="1080"/></clipPath><linearGradient id="linear-gradient" x1="-13.33" y1="1054.66" x2="1946.61" y2="20.64" gradientUnits="userSpaceOnUse"><stop offset="0" stop-color="#546de5"/><stop offset="1" stop-color="#778beb"/></linearGradient><linearGradient id="linear-gradient-2" x1="628.69" y1="1290.1" x2="369.65" y2="-75.9" xlink:href="#linear-gradient"/><linearGradient id="linear-gradient-3" x1="1688.78" y1="654.19" x2="1453.44" y2="-586.81" xlink:href="#linear-gradient"/></defs><title>BG_CONCEPTS</title><g class="cls-2"><rect class="cls-3" x="-30" y="-28" width="1973" height="1142"/><path class="cls-4" d="M-117,118C-4.41,33.68,191.63,39.49,286,136c140.58,143.76-54.77,376,81,571C468,852.12,688.83,885.36,919,920c242.87,36.56,375.64,1,445,96,52.27,71.61,43.71,183.39,9,255-157.33,324.58-1151.18,441.54-1497-30-161.2-219.8-137.56-507.42-115-782C-219.46,221.19-163.87,153.1-117,118Z"/><path class="cls-5" d="M681-279c-102.38,139.3-97,383.11,11,470,91.77,73.84,252.43,30.19,312,14C1151.4,165,1158.84,102.51,1279,67c163.52-48.33,393.79-4.83,491,131,78.06,109.06,4.44,185.57,85,376,24.45,57.79,97.77,231.11,220,259,202.16,46.12,541.93-304.76,493-596-35.25-209.83-260.2-316.83-496-429C1657.81-389,906.56-585.9,681-279Z"/></g></svg>