<?xml version="1.0" encoding="utf-8"?>
<!-- Generator: Adobe Illustrator 23.0.4, SVG Export Plug-In . SVG Version: 6.00 Build 0)  -->
<svg version="1.1"
	 id="svg2458" xmlns:cc="http://creativecommons.org/ns#" xmlns:dc="http://purl.org/dc/elements/1.1/" xmlns:inkscape="http://www.inkscape.org/namespaces/inkscape" xmlns:rdf="http://www.w3.org/1999/02/22-rdf-syntax-ns#" xmlns:sodipodi="http://sodipodi.sourceforge.net/DTD/sodipodi-0.dtd" xmlns:svg="http://www.w3.org/2000/svg"
	 xmlns="http://www.w3.org/2000/svg" xmlns:xlink="http://www.w3.org/1999/xlink" x="0px" y="0px" viewBox="0 0 432.1 445.4"
	 style="enable-background:new 0 0 432.1 445.4;" xml:space="preserve">
<style type="text/css">
	.st0{fill:#333333;stroke:#FFFFFF;stroke-width:0.8;}
	.st1{fill:#ECF0F1;fill-opacity:0;stroke:#ECF0F1;stroke-width:12.4651;stroke-linecap:round;stroke-linejoin:round;}
	.st2{fill:#ECF0F1;fill-opacity:0;stroke:#ECF0F1;stroke-width:12.4651;stroke-linecap:round;stroke-linejoin:bevel;}
	.st3{fill:#ECF0F1;stroke:#ECF0F1;stroke-width:4.155;}
	.st4{fill:#ECF0F1;stroke:#ECF0F1;stroke-width:2.0775;}
</style>
<defs>
	
	
		<inkscape:perspective  id="perspective2491" inkscape:persp3d-origin="270.04437 : 185.57625 : 1" inkscape:vp_x="0 : 278.36438 : 1" inkscape:vp_y="0 : 1000 : 0" inkscape:vp_z="540.08875 : 278.36438 : 1" sodipodi:type="inkscape:persp3d">
		</inkscape:perspective>
</defs>
<sodipodi:namedview  bordercolor="#666666" borderopacity="1.0" gridtolerance="10.0" guidetolerance="10.0" id="base" inkscape:current-layer="svg2458" inkscape:cx="122.28965" inkscape:cy="306.65007" inkscape:pageopacity="0.14901961" inkscape:pageshadow="2" inkscape:window-height="845" inkscape:window-maximized="1" inkscape:window-width="1440" inkscape:window-x="0" inkscape:window-y="0" inkscape:zoom="0.88373376" objecttolerance="10.0" pagecolor="#ff00ff" showgrid="false">
	</sodipodi:namedview>
<rect id="rect3653" x="-33.5" y="-8.1" class="st0" width="537.7" height="475.3"/>
<g id="g3619">
	<path id="path2464" class="st1" d="M402.4,271.2c-50.3,10.4-53.8-6.7-53.8-6.7c53.1-78.8,75.3-178.8,56.2-203.3
		C352.5-5.5,262,26,260.5,26.9L260,27c-9.9-2.1-21.1-3.3-33.6-3.5c-22.8-0.4-40,6-53.1,15.9c0,0-161.4-66.5-153.9,83.6
		c1.6,31.9,45.8,241.7,98.5,178.3c19.3-23.2,37.9-42.7,37.9-42.7c9.2,6.1,20.3,9.3,31.9,8.1l0.9-0.8c-0.3,2.9-0.2,5.7,0.4,9
		c-13.6,15.2-9.6,17.8-36.7,23.4c-27.5,5.7-11.3,15.7-0.8,18.4c12.8,3.2,42.3,7.7,62.3-20.2l-0.8,3.2c5.3,4.3,9.1,27.7,8.4,49
		c-0.6,21.3-1,35.9,3.1,47.3c4.2,11.4,8.4,37,44,29.4c29.8-6.4,45.3-22.9,47.4-50.6c1.5-19.6,5-16.7,5.2-34.3l2.8-8.3
		c3.2-26.6,0.5-35.2,18.9-31.2l4.5,0.4c13.5,0.6,31.2-2.2,41.6-7C411.2,284,424.4,266.7,402.4,271.2L402.4,271.2L402.4,271.2z"/>
	<path id="path2466" class="st1" d="M215.9,286.5c-1.4,49.5,0.3,99.4,5.2,111.5c4.8,12.1,15.2,35.7,50.9,28
		c29.8-6.4,40.7-18.8,45.4-46.1c3.5-20.1,10.1-75.9,11-87.3"/>
	<path id="path2468" class="st1" d="M173.1,38.3c0,0-161.5-66-154,84.1c1.6,31.9,45.8,241.7,98.5,178.3
		c19.3-23.2,36.7-41.3,36.7-41.3"/>
	<path id="path2470" class="st1" d="M260.3,26.2c-5.6,1.8,89.8-34.9,144.1,34.4c19.2,24.5-3,124.5-56.2,203.3"/>
	<path id="path2472" class="st2" d="M348.3,264c0,0,3.5,17,53.8,6.7c22-4.6,8.8,12.8-13.6,23.2c-18.3,8.5-59.5,10.7-60.1-1.1
		C326.6,262.3,350,271.6,348.3,264c-1.5-6.9-12-13.6-18.9-30.3c-6-14.6-82.8-126.8,21.3-110.2c3.8-0.8-27.1-99-124.6-100.6
		c-97.4-1.6-94.2,119.8-94.2,119.8"/>
	<path id="path2474" class="st1" d="M188.6,274.3c-13.6,15.2-9.6,17.8-36.7,23.4c-27.5,5.7-11.3,15.7-0.8,18.4
		c12.8,3.2,42.3,7.7,62.3-20.2c6.1-8.5,0-22.1-8.4-25.5C200.9,268.7,195.5,266.6,188.6,274.3L188.6,274.3L188.6,274.3z"/>
	<path id="path2476" class="st1" d="M187.7,274.1c-1.4-8.9,2.9-19.5,7.5-31.9c6.9-18.6,22.9-37.3,10.1-96.3
		c-9.5-44-73.4-9.2-73.4-3.2c0,6,2.9,30.3-1.1,58.5c-5.2,36.9,23.5,68.1,56.5,64.9"/>
	<path id="path2478" class="st3" d="M172.5,141.7c-0.3,2,3.7,7.5,9,8.2c5.2,0.7,9.7-3.5,10-5.6c0.3-2-3.7-4.3-9-5
		C177.3,138.6,172.8,139.7,172.5,141.7L172.5,141.7L172.5,141.7z"/>
	<path id="path2480" class="st4" d="M331.9,137.5c0.3,2-3.7,7.5-9,8.2c-5.2,0.7-9.7-3.5-10-5.6c-0.3-2,3.7-4.3,9-5
		S331.7,135.5,331.9,137.5L331.9,137.5L331.9,137.5z"/>
	<path id="path2482" class="st1" d="M350.7,123.4c0.9,16-3.4,26.9-4,43.9c-0.8,24.7,11.8,53.1-7.2,81.4"/>
	<path id="path2484" class="st1" d="M0,0"/>
</g>
</svg>
