<?xml version="1.0" encoding="utf-8"?>
<!-- Generator: Adobe Illustrator 23.0.4, SVG Export Plug-In . SVG Version: 6.00 Build 0)  -->
<svg version="1.1" id="Layer_1" xmlns="http://www.w3.org/2000/svg" xmlns:xlink="http://www.w3.org/1999/xlink" x="0px" y="0px"
	 viewBox="0 0 504.1 216" style="enable-background:new 0 0 504.1 216;" xml:space="preserve">
<style type="text/css">
	.st0{fill:#333333;}
</style>
<g>
	<path class="st0" d="M433.2,88c-9.5,0-14.9,7.6-14.9,20.8c0,13.2,5.4,20.8,14.7,20.8c9.1,0,14.6-7.6,14.6-20.8
		C447.6,95.7,442.4,88,433.2,88z"/>
	<path class="st0" d="M360.2,98.2l-0.2-7.9v-1.9h0c-0.3,0-0.6,0-0.8,0h-1.7c-4.6-0.2-10.1,1.1-13.8,3.4c-5.7,3.3-8.7,9.1-8.7,17.5
		c0,11.9,5.9,18.8,16.4,18.8c3.3,0,5.9-0.6,9-1.5v-1.7v-6.5c0-2.8-0.2-5.9-0.2-9.1L360.2,98.2z"/>
	<path class="st0" d="M59.8,108.8c0,12.7,6.7,19.7,18.9,19.7c2.6,0,4.8-0.2,8.2-0.6V89.5c-2.8-0.9-5.1-1.2-8.1-1.2
		C66.8,88.3,59.8,95.7,59.8,108.8z"/>
	<path class="st0" d="M476.1,0H28C12.5,0,0,12.5,0,28v160c0,15.5,12.5,28,28,28h448.1c15.5,0,28-12.5,28-28V28
		C504.1,12.5,491.6,0,476.1,0z M35.5,109.2c0-24.3,16.1-40.1,41.1-40.1c3.9,0,6.8,0.3,10.4,1.2V33.9h23.9v110.5
		c-12.2,2.3-21.2,3.3-31,3.3C50.7,147.7,35.5,134.5,35.5,109.2z M148.8,126.1c0,19.1-1.4,28.2-5.6,36.1c-3.9,7.6-9,12.4-19.5,17.7
		l-22.2-10.5c10.5-5,15.7-9.3,18.9-16c3.4-6.8,4.5-14.7,4.5-35.5V70.8h23.9V126.1z M148.8,58.5h-23.9V34h23.9V58.5z M221.3,145.3
		c-10.7,1.6-24.2,2.6-34.1,2.6c-20,0-29-7-29-22.5c0-16.7,11.9-24.5,41.2-27v-5.3c0-4.3-2.2-5.9-8.2-5.9c-8.8,0-18.8,2.5-28.1,7.3
		V76.2h0c10.5-5,20.6-7.1,31.6-7.1c12.2,0,20.3,3.3,23.9,9.6c2,3.6,2.6,8.2,2.6,18.1V145.3z M303.3,146.7h-23.9v-45.9
		c0-9.1-3.1-12.6-11.6-12.6c-3.3,0-6.2,0.3-11,1.7v56.7H233V74.5h0c14.1-3.7,25.7-5.4,37.5-5.4c12.2,0,21.1,2.8,26.4,8.2
		c5,5.1,6.5,10.7,6.5,22.6V146.7z M383,89.2v2.5l0.3,10.1l0.2,13c0.2,3.3,0.2,6.5,0.3,9.8c0,2.9,0,4.3,0,6.5c0,20.5-1.7,30.1-6.8,38
		c-7.4,11.6-20.3,17.4-38.6,17.4c-9.3,0-17.4-1.4-25.7-4.7v-22h0c8.4,4.3,16.7,6.4,25.6,6.4c15.7,0,22.3-6.4,22.3-21.5
		c0-0.2,0-0.3,0-0.5c-4.6,2.3-9.3,3.3-15.5,3.3c-20.9,0-34.3-13.8-34.3-35.7c0-27.1,19.7-42.5,54.6-42.5c10.2,0,19.7,1.1,31.2,3.4
		l-8.2,17.2C382,88.6,387.8,89.7,383,89.2z M432.6,148.8c-23.9,0-38.6-15-38.6-39.2c0-25.1,15.2-40.8,39.5-40.8
		c23.9,0,38.4,15,38.4,39.4C472,133.1,456.8,148.8,432.6,148.8z"/>
	<path class="st0" d="M179.6,124.4c0,4.6,2.9,6.8,9.5,6.8c3.6,0,6.8-0.3,11.5-1.1v-16C184.8,115.7,179.6,118.2,179.6,124.4z"/>
</g>
</svg>
